<?xml version="1.0" standalone="no"?>
<!DOCTYPE svg PUBLIC "-//W3C//DTD SVG 20010904//EN"
 "http://www.w3.org/TR/2001/REC-SVG-20010904/DTD/svg10.dtd">
<svg version="1.0" xmlns="http://www.w3.org/2000/svg"
 width="512.000000pt" height="512.000000pt" viewBox="0 0 512.000000 512.000000"
 preserveAspectRatio="xMidYMid meet">
<metadata>
Created by potrace 1.14, written by Peter Selinger 2001-2017
</metadata>
<g transform="translate(0.000000,512.000000) scale(0.100000,-0.100000)"
fill="#000000" stroke="none">
<path d="M952 4625 c-166 -36 -331 -165 -405 -315 -71 -146 -68 -47 -65 -1795
l3 -1570 24 -65 c13 -36 30 -78 39 -95 67 -130 207 -248 353 -296 l74 -24
1585 0 c872 0 1599 3 1615 7 17 4 44 11 60 14 49 11 160 75 219 127 98 85 177
221 194 337 4 25 7 752 7 1615 0 1724 4 1606 -63 1743 -67 136 -191 245 -344
300 l-73 27 -1580 2 c-1311 1 -1591 -1 -1643 -12z"/>
</g>
</svg>
